<svg xmlns="http://www.w3.org/2000/svg" width="1500mm" height="100mm" viewBox="0 0 1500 100"><path d="M.73 1.775l.166 99.037 1500.765.453-.771-99.447s-346.527 63.32-748.5 62.59C308.727 63.6.73 1.774.73 1.774z" fill="#fff"/><path d="M179.917-92.768l282.726-5.292-194.28 40.066-78.619-12.851z" fill="none" stroke="#000" stroke-width=".265"/><path d="M203.73-222.666c11.212-4.157 36.41 18.27 57.473 26.938 21.062 8.67 163.39-34.12 247.301-28.198 83.91 5.922 172.105 41.704 121.079 57.83-51.027 16.128-241.275 12.6-337.785-4.535-96.51-17.135-99.282-47.877-88.069-52.035z" fill="#fff" stroke="#000" stroke-width=".265" opacity=".02"/></svg>