<svg xmlns="http://www.w3.org/2000/svg" width="22.889" height="27.927" viewBox="0 0 6.0561133 7.3890266"><path d="M.832 7.073C.639 6.88.515 5.943.515 4.688.515 3.5.374 2.391.184 2.08c-.282-.46-.254-.598.183-.922.282-.21.774-.381 1.092-.381.318 0 .726-.179.908-.397.419-.505.903-.505 1.323 0 .18.218.59.397.907.397.319 0 .81.171 1.092.38.437.325.465.462.183.923-.19.312-.33 1.42-.33 2.61 0 1.254-.125 2.191-.318 2.384-.421.421-3.97.421-4.392 0zm4.125-2.262l.077-2.183h-3.99v2.073c0 1.14.084 2.156.187 2.26.103.102.966.152 1.918.11l1.731-.077zm-3.044.33c.002-.727.12-1.511.181-1.109.245.436.11 2.016.047 2.342-.006.153-.23-.505-.228-1.232zm1.058 0c.002-.727.187-1.912.265-.541.06.402.06.997-.004 1.323-.083 1.148-.263-.054-.26-.781zm1.059 0c.002-.727.22-1.845.23-.524.062.402.027.98-.036 1.306-.063 1.06-.196-.054-.194-.781zm1.512-3.44c0-.324-.456-.396-2.514-.396s-2.513.072-2.513.397.455.397 2.513.397 2.514-.072 2.514-.397zM3.353.617C3.265.529 3.037.52 2.846.597c-.21.084-.148.146.16.159.279.011.435-.051.347-.139z" fill="#f4555f"/></svg>