<svg xmlns="http://www.w3.org/2000/svg" width="700" height="120" viewBox="0 0 185.20834 31.749998"><path d="M169.403 1.62a1.564 1.564 0 0 0-.247.002c-.909.07-2.505.827-5.793 2.48-3.841 1.932-5.103 2.676-4.558 2.687.831.016 11.55-2.827 11.902-3.157.122-.114.03-.577-.203-1.028-.306-.591-.567-.941-1.101-.983zm-114.804.156c-8.814 0-15.638 8.639-13.49 17.076 1.297 5.089 5.054 8.892 10.182 10.304 1.743.48 5.695.378 7.256-.187l.943-.329-1.472-1.369c-1.004-1.049-1.78-.575-3.982-.674-2.065-.094-2.67-.235-4.175-.976a11.583 11.583 0 0 1-5.23-5.244c-.836-1.698-.88-1.935-.88-4.704 0-2.734.053-3.029.849-4.709 1.064-2.246 2.933-4.104 5.298-5.269 1.688-.831 2.07-1.16 4.842-1.16 2.776 0 2.87.328 4.568 1.164 3.676 1.81 5.994 5.197 6.22 9.088.07 1.208-.018 2.757-.203 3.582L65 19.823l.874.902c.48.496.99.864 1.13.817.485-.161 1.262-2.971 1.406-5.081.533-7.809-5.934-14.685-13.811-14.685zm78.428.026a11.709 11.709 0 0 0-3.013.38c-4.83 1.258-8.4 5.238-9.176 10.233-.399 2.564-.204 3.384.805 3.384h.757l.112-2.315c.086-1.752.276-2.669.786-3.77 1.985-4.293 6.841-6.929 11.263-6.114 8.66 1.596 11.986 12.062 5.768 18.154-.743.728-1.852 1.55-2.464 1.826-.986.444-1.113.603-1.113 1.388 0 .487.073.886.162.886.088 0 .888-.387 1.777-.86 4.92-2.617 7.514-8.471 6.122-13.814-1.46-5.607-6.407-9.352-11.786-9.378zM4.95 2.306l-.774.773-.773.773v24.159l.773.773.774.774h18.484l.7-.65.7-.648-.011-4.18-.011-4.18-1.047 1.191-1.046 1.19v2.448l-.002 2.447H5.783V4.687h16.933v3.547L23.775 7.2c.904-.882 1.058-1.196 1.058-2.148 0-2.759.05-2.746-10.855-2.746zm91.066.833c-.991.002-2.064.008-3.172.019l-8.059.074-1.688 1.984c-2.006 2.357-2.436 3.242-2.436 5.018 0 1.568.336 1.69 1.098.4.85-1.442 2.146-1.872 3.275-1.086.835.58 2.113.75 3.28.436 1.348-.363 2.732.192 3.17 1.27.547 1.35 3.46 12.883 3.463 13.71.003 1.041-.724 1.958-1.883 2.378-.751.272.087.327 5.27.343l6.164.02.659-.659.66-.659-.077-9.204-.076-9.205-1.834-2.314c-1.009-1.273-2.08-2.374-2.381-2.447-.226-.055-2.46-.084-5.433-.078zm-66.448.754c-.257 0-.896.447-1.421.992l-.954.992 2.062 1.915c1.134 1.053 2.138 1.916 2.232 1.918.359.008 1.814-1.89 1.814-2.364 0-.606-3.079-3.453-3.733-3.453zm63.781 0c7.963 0 8.743.076 8.743.847 0 .116-1.428.211-3.175.211-1.751 0-3.175.11-3.175.243 0 1.014.245 1.08 3.957 1.08 3.299 0 3.679.05 4.113.53.478.528.463.529-10.419.529-10.816 0-10.896-.004-10.615-.53.26-.486.554-.529 3.672-.529 2.948 0 3.447-.063 3.828-.483.24-.266.437-.564.437-.662 0-.097-1.447-.178-3.216-.178-3.199 0-3.213-.003-2.737-.529.46-.507.815-.529 8.587-.529zm81.39.034c-.857.03-2.477.431-5.972 1.405l-5.159 1.437 6.554.018 6.553.017-.174-.728c-.222-.927-.628-1.732-1-1.98-.18-.12-.412-.183-.802-.169zM135.14 5.21c-.056 0-.12.006-.195.006-.392 0-.672.641-1.472 3.374-.543 1.855-1.233 3.716-1.533 4.135-.3.419-.546 1.048-.546 1.398 0 .86.79 1.675 1.629 1.681.377.003 1.639.529 2.803 1.168 2.457 1.35 2.357 1.32 2.76.833.256-.307-.075-.681-1.812-2.05-1.169-.922-2.204-1.957-2.3-2.302-.097-.345.08-2.25.391-4.233.595-3.785.665-4.012.275-4.01zm-105.56.091c.307-.004.724.347 1.796 1.336.654.603.785.87.563 1.139-.408.491-.47.465-1.904-.798-1.134-1-1.232-1.169-.86-1.478.147-.121.265-.197.405-.199zm-2.82 1.25c-.176-.007-.459.246-.628.562-.28.522-.131.736 1.645 2.374 1.995 1.84 2.467 2.033 2.98 1.218.25-.395-.004-.74-1.691-2.303-1.091-1.01-2.129-1.844-2.305-1.85zM14.118 7.577c-2.97 0-5.939.113-6.164.338-.468.468-.386 1.468.145 1.778.624.363 11.313.374 11.99.012.572-.306.68-1.304.194-1.79-.225-.225-3.195-.338-6.165-.338zm35.825.285c-.24 0-.942.55-1.561 1.221-1.09 1.183-1.121 1.265-.982 2.61.354 3.432 4.578 9.135 9.53 12.867 2.262 1.704 3.684 2.513 5.343 3.04.582.184 1.342.343 1.688.353 1.442.04 3.747-2.153 3.243-3.085-.288-.533-4.647-4.835-4.898-4.835-.09 0-.619.41-1.174.912l-1.01.913-3.363-3.37-3.363-3.37.8-.768c.44-.421.8-1.01.8-1.307 0-.653-4.417-5.181-5.053-5.181zm116.524.265c-11.606 0-12.919.042-13.355.437-.452.41-.484 1.078-.484 10.187 0 9.394.02 9.767.529 10.277.514.515.882.53 13.21.53h12.68l.55-.698c.46-.586.547-1.07.547-3.043v-2.345l-4.696-.001c-7.366-.002-7.739-.233-7.739-4.782 0-2.641.05-2.917.638-3.603l.638-.742 5.514-.132 5.513-.132.077-2.345c.059-1.782-.022-2.497-.337-2.977l-.413-.631zm-141.174.08c-.111.03-2.23 2.316-4.709 5.08l-4.507 5.026 2.063 1.915c1.135 1.053 2.14 1.916 2.231 1.918.092.002 2.214-2.283 4.715-5.078l4.547-5.081-2.069-1.917c-1.138-1.055-2.16-1.893-2.271-1.863zm.045 1.786c.11-.013.223.08.414.268.385.379.379.453-.078.866-.416.377-.55.393-.798.093-.223-.27-.204-.485.08-.866.17-.23.274-.348.383-.361zm58.623.28c-.426-.026-.85.316-1.04.962-.139.473-.392.86-.562.86-.5 0-.928.689-.736 1.188.204.532 1.362.45 3.751-.267 1.196-.359 1.393-.508 1.323-1.002-.06-.422-.296-.605-.868-.67-.431-.049-.949-.323-1.15-.61-.207-.296-.463-.445-.718-.46zm-.178.534c.017 0 .035.003.053.01a.404.404 0 0 1 .265.352c0 .146-.12.304-.265.353-.145.048-.264-.11-.264-.353 0-.212.09-.36.21-.361zm5.383.246a4.624 4.624 0 0 0-1.28.147c-.415.111-.604.392-.661.988-.074.754-.22.88-1.537 1.316-.8.266-2.002.548-2.671.627-1.03.122-1.302.053-1.77-.449-.432-.464-.717-.553-1.297-.409-.92.23-1.672.882-1.664 1.443.01.816 3.398 13.289 3.711 13.666.174.21.51.381.747.38.805-.006 10.384-2.605 10.767-2.922a1.19 1.19 0 0 0 .38-.804c0-.993-3.434-13.567-3.762-13.775-.2-.127-.555-.197-.963-.208zm-65.419 1.175c.807 0 .417.636-2.18 3.554-1.435 1.61-2.718 2.928-2.853 2.928-.136 0-.314-.176-.396-.391-.186-.485 4.811-6.091 5.43-6.091zm-10.07.132c-3.852 0-5.497.09-5.723.317-.468.468-.386 1.468.145 1.781.28.166 2.176.25 4.795.212l4.332-.061.928-1.125.928-1.124zm119.335 1.058c.626 0 .947.731.538 1.224-.398.48-1.01.463-1.2-.033-.232-.605.094-1.19.662-1.19zm-43.402.659c.097.097 2.575 9.43 2.733 10.294.08.442-.438.642-4.274 1.652-2.4.632-4.544 1.15-4.762 1.15-.294.003-.756-1.377-1.785-5.333-.764-2.934-1.36-5.36-1.323-5.388.181-.145 9.333-2.454 9.411-2.375zm85.699 1.193c-6.81 0-6.542-.138-6.542 3.368 0 1.996.095 2.648.439 3.028.398.44.95.483 6.07.483 6.769 0 6.456.17 6.456-3.498 0-3.489.205-3.38-6.423-3.38zm-86.495.561c-.444-.02-1.506.219-3.737.78-3.249.818-3.808 1.056-3.531 1.503.204.33 7.379-1.563 7.517-1.984.06-.182.017-.287-.25-.299zm-77.288 1.291c-3.315 0-3.89.157-3.89 1.059 0 .232.143.566.318.74.205.206 1.27.318 3.021.318h2.704l.55-.891c.303-.49.55-.967.55-1.059 0-.092-1.463-.167-3.253-.167zm110.542 0c-4.195 0-5.936.09-6.164.318-.214.213-.318 1.422-.318 3.704v3.387h19.844v-.614c0-.423-.73-1.327-2.347-2.91-2.183-2.136-2.424-2.297-3.44-2.297-.875 0-1.092-.095-1.092-.477 0-1.038-.426-1.11-6.483-1.11zm50.506.561c.752-.034 1.257.498 1.168 1.269-.065.558-.238.7-.941.767-.94.09-1.228-.263-1.078-1.32.058-.408.293-.644.697-.702a1.78 1.78 0 0 1 .154-.014zm-83.248.501c-.448.005-7.111 1.795-7.27 1.953-.068.069-.043.257.056.418.1.161.38.235.622.165.242-.07 1.9-.51 3.682-.978 2.115-.555 3.241-.974 3.241-1.206 0-.195-.149-.354-.33-.352zm-73.624 1.067c-.147-.007-.603 1.196-1.013 2.672-.576 2.078-.67 2.729-.413 2.888.315.194 1.419-.166 4.296-1.402l1.278-.55-1.94-1.797c-1.066-.99-2.06-1.804-2.208-1.81zm114.46.782c.31 0 1.207.634 2.05 1.45l1.498 1.45-2.05.005-2.05.005v-1.455c0-1.3.058-1.455.551-1.455zm-114.147.529c.089 0 .678.476 1.31 1.058.63.582 1.105 1.059 1.053 1.059-.052 0-.509.173-1.016.385-.87.363-.954.352-1.45-.198-.43-.476-.485-.744-.293-1.444.129-.473.307-.86.396-.86zm72.662.295c-.74-.03-5.8 1.136-6.124 1.436-.05.047-.014.213.082.368.224.363.02.39 3.137-.398 2.758-.696 3.27-.933 2.992-1.383-.008-.013-.038-.02-.087-.022zm-78.05 1.028c-2.393 0-2.99.211-2.99 1.058 0 .233.142.566.317.74.192.193 1.122.318 2.352.318 1.93 0 2.044-.033 2.195-.637.088-.35.233-.826.322-1.058.14-.366-.148-.421-2.195-.421zm78.08 1.35a.33.33 0 0 0-.148.023c-.196.07-1.459.408-2.805.75-1.527.388-2.447.752-2.447.97 0 .483.586.431 3.175-.28 1.65-.453 2.274-.744 2.342-1.093.045-.231.004-.357-.117-.37zm26.88 1.825v1.27c0 .698.142 1.412.317 1.587.175.175.68.315 1.124.312.648-.005.886-.174 1.204-.856.263-.563.722-.97 1.362-1.21.844-.315 1.08-.305 1.894.08.54.257 1.063.766 1.25 1.217l.321.775 2.547-.01 2.548-.01.534-.849c1.153-1.832 3.34-1.846 4.413-.028.553.938 1.407 1.184 2.012.58.174-.176.317-.89.317-1.588v-1.27h-9.922zm4.857 1.587c-1.726 0-2.54 2.078-1.298 3.32.357.357.958.65 1.335.65.882 0 1.984-1.103 1.984-1.985 0-.903-1.102-1.985-2.02-1.985zm10.38.036c-1.087.026-2.14.95-1.905 2.165.09.463.414 1.05.72 1.305.74.615 1.596.585 2.448-.085.882-.694.936-1.942.122-2.808a1.808 1.808 0 0 0-1.386-.577zm-.02 1.023c.775 0 1.242.725.89 1.382-.53.992-2.036.244-1.692-.84.11-.347.4-.542.802-.542zm-10.323.132c.874 0 1.202.671.651 1.335-.41.495-1.286.496-1.475.003-.31-.808.016-1.338.824-1.338z" fill="#f53341"/></svg>