<svg xmlns="http://www.w3.org/2000/svg" width="405" height="270" viewBox="0 0 405 270"><path d="M227.688 161.372c-1.74.165-2.06 3.591-2.423 4.537-.317.825-.839-.362-3.04-.416-3.209-.077-3.181 2.097-3.896 8.87-.881 8.353-1.173 6.199-2.182 6.788-2.373 1.383-2.316-1.755-2.33-3.078-.039-4.055-3.004-10.27-6.424-12.354-2.876-1.754-3.972-1.484-15.46-1.488-12.193-.003-13.51-.488-14.497 1.358-.589 1.1.347 3.153.779 3.197.964.683-2.836.394-5.311 1.038-3.584.93-4.146.645-4.949 2.41-1.039 2.285 4.666 3.365.273 3.821-2.522.262-3.55 3.475-1.757 5.267.775.775 4.277.101 2.974 2.173-1.224 1.948-.73 4.512 6.477 4.617 14.483.21 7.465.597 7.726 2.713 2.415 2.966-.703 2.765-3.966 2.891-4.584.178-8.633 2.142-11.536 6.031-1.81 2.426-1.832 4.393-2.12 14.734-.409 14.62-.613 16.097 2.232 16.842 2.067.54 3.163-5.116 2.943 3.292-.094 3.611 2.153 4.831 4.211 5.122 1.327.187 2.088-3.07 2.437.792.236 2.609 3.796 2.121 5.268.123.21-3.273.58-1.988 2.933-1.18 2.764.947 3.332-3.272 3.576-10.469.32-9.408.844-5.046 2.618-5.638 3.05-1.018 2.254-.777 1.788 3.154.04 4.056 4.494 10.693 7.914 12.778 2.876 1.754 3.546 1.273 15.034 1.277 12.193.003 13.297.381 14.285-1.464.589-1.1.233-2.879-.199-2.923-.432-.044 1.955-.23 4.43-.874 3.584-.931 4.08-1.508 5.028-3.354.037-1.665-2.148-2.144-1.373-2.92.775-.774 3.644-1.756 3.705-3.254.057-1.386-.124-1.614-.996-2.278-1.904-1.453-3.707.178-2.164-4.009-.264-1.52.177-2.652-7.024-2.966-8.77-.384-9.204-.551-8.033-2.613-1.877-1.91 1.01-2.12 4.273-2.247 4.584-.177 9-2.78 11.903-6.67 1.81-2.425 1.678-4.765 1.967-15.106.408-14.62-1.427-17.276-4.037-16.122-2.257.998-1.19.163-1.993-3.584-.262-3.625-.383-3.775-1.867-5.23-1.114-1.092-3.769.698-3.769.698-.554-.926-.107-4.603-3.428-4.286zm.888 2.103c1.094.143 1.647 2.314 1.647 11.486 0 7.05-.035 11.362.574 11.362.6 0 .362-4.107.362-10.107 0-9.333.771-9.893 2.638-9.893 1.879 0 2 1.199 2.532 11 .362 6.657-.138 11 .468 11 .564 0 .574-3.26.574-6.926 0-5.914.614-6.074 2.504-6.074 2.017 0 2.068.394 1.75 13.437-.324 13.32-.354 13.464-3.271 16.506-1.619 1.688-4.544 3.513-6.5 4.057-1.956.543-4.007.973-4.557.955-2.532-.085-7.346-2.984-9.8-5.9-2.52-2.994-2.7-3.847-2.7-12.706 0-8.504.183-9.461 1.75-9.164 1.305.248 1.874 1.602 2.236 5.323.32 3.282.024.436.362-8.115.48-12.162 1.281-12.893 3.152-12.893 1.843 0 2.036.823 2.469 10.5l.47 10.5.53-11.99c.459-10.375.767-12.033 2.281-12.323.198-.038.373-.055.53-.035zm-37.125 1.848c11.223 0 12.854.225 15.555 2.148 3.29 2.343 5.791 7.275 5.791 11.418 0 4.054-3.01 9.468-6.42 11.547-2.38 1.451-5.03 1.88-11.664 1.883-9.01.004-10.118-.307-9.24-2.594.349-.908 2.085-1.402 4.932-1.402 2.416 0 3.008-.344 3.008-.894 0-.614-3.475-.255-11.19-.255-11.435 0-12.542-1.01-12.238-2.601.282-1.482 1.866-1.836 10.322-2.307l9.99-.557-10.5-.209c-11.069-.22-14.109-.532-13.103-3.152.506-1.319 3.028-2.062 12.322-2.234l11.281-.211-9.795-.326c-7.755-.26-11.092-.655-11.567-1.893-.973-2.535 2.793-3.318 12.862-3.535 7.163-.154 8.03-.295 3.524-.572-5.583-.344-8.057-1.584-6.899-3.457.271-.44 6.134-.797 13.03-.797zm22.096 16.917c.46.04-.3 7.993.028 13.026.502 7.685 1.51 8.571 3.737 11.644l5.911 4.264-11.22.107c-4.27.04-7.682.598-8.884 1.2-1.201.602-3.518 1.436-4.694 2.828l-3.257 5.14.485-10.95c-.347-7.632-1.194-7.954-4.446-11.308l-5.25-4.613 9.13.106c8.444.099 12.728-1.197 14.865-4.942.355-.623 3.811-5.03 3.595-6.502zm-32.963 12.55c3.64.097 7.251 1.813 10.162 5.128 2.944 3.353 3.051 3.805 3.051 13.012 0 8.544-.182 9.505-1.75 9.207-1.304-.248-1.873-1.604-2.236-5.324-.32-3.283-.663-.54-1 8.01-.48 12.162-.643 13-2.514 13-1.843 0-2.037-.824-2.47-10.5l-.47-10.5-.53 11.988c-.46 10.375-.765 12.035-2.28 12.324-1.585.303-2.388-.757-2.388-11.24 0-7.049.247-11.572-.362-11.572-.6 0-.68 3.893-.68 9.893 0 9.334-.453 10.107-2.32 10.107-1.879 0-2.851-.773-2.851-11.107 0-6.666.457-10.893-.149-10.893-.564 0-1 2.833-1 6.5 0 5.914-.188 7.138-2.078 7.138-2.016 0-2.068-1.033-1.75-14.076.325-13.33.35-13.461 3.28-16.515 3.027-3.157 6.696-4.678 10.335-4.58zm33.297 17.537c9.01-.004 10.118.307 9.24 2.593-.348.909-2.085 1.403-4.931 1.403-2.416 0-4.393.45-4.393 1 0 .613 5.07.148 12.785.148 11.436 0 12.33 1.01 12.026 2.602-.285 1.488-1.826 1.82-10.323 2.218l-9.988.47 11.5.53c10.657.492 11.5.678 11.5 2.532 0 1.852-.85 2.04-11.5 2.55l-11.5.55 9.781.2c7.923.162 9.9.503 10.397 1.8.987 2.572-1.57 3.356-11.678 3.574-7.163.154-8.03.293-3.523.57 5.582.343 8.056 1.583 6.898 3.457-.271.439-6.203.783-13.183.765-11.382-.028-12.988-.25-15.565-2.171-5.338-3.98-6.964-11.174-3.957-17.512 2.664-5.613 6.411-7.275 16.414-7.28z" fill="#f53b48"/><path d="M58.442 237.728c-1.145-1.265-1.658-3.654-1.665-7.75-.01-6.022-1.658-10.412-7.48-19.921-5.137-8.389-4.149-17.682 2.666-25.075 7.849-8.515 20.417-9.506 29.16-2.3 5.822 4.8 7.945 10.143 7.49 18.21 0 0-.91 7.284-3.99 11.834-5.43 8.022-5.836 9.154-5.836 16.265 0 9.148-1.523 10.566-11.345 10.566-5.846 0-7.683-.373-9-1.829zm15.439-2.221c3.461-1.853.987-2.95-6.653-2.95-7.4 0-8.533.508-6.241 2.8 1.479 1.479 10.22 1.58 12.894.15zm1.906-7.45c0-1.208-1.556-1.5-8-1.5s-8 .292-8 1.5 1.556 1.5 8 1.5 8-.292 8-1.5zm2.236-10.564c1.795-3.336 4.277-7.931 5.514-10.212 6.262-11.543-1.948-25.62-15.096-25.884-11.427-.23-18.654 6.932-18.654 18.485 0 4.658.553 6.218 4 11.29 2.2 3.237 4.485 7.347 5.078 9.135l1.077 3.25h14.816zm-44.754-16.966c-.39-.63-.259-1.593.29-2.142 1.456-1.456 5.728-.582 5.728 1.172 0 1.814-4.999 2.62-6.018.97zm63 0c-.39-.63-.259-1.593.29-2.142 1.456-1.456 5.728-.582 5.728 1.172 0 1.814-4.999 2.62-6.018.97zm-57.475-15.93c-2.15-1.651-2.264-2.004-.829-2.555 2.118-.813 5.822 1.128 5.822 3.05 0 2.001-2.002 1.803-4.993-.495zm52.993.495c0-1.922 3.704-3.863 5.822-3.05 1.435.55 1.32.904-.829 2.555-2.99 2.298-4.993 2.496-4.993.495zM50.745 173.48c-.612-1.143-.824-2.828-.473-3.744.55-1.435.904-1.32 2.555.828 1.053 1.372 1.926 3.056 1.938 3.744.036 2.019-2.81 1.433-4.02-.828zm30.064.828c.012-.688.885-2.372 1.938-3.744 1.651-2.149 2.004-2.263 2.555-.828.351.916.139 2.6-.473 3.744-1.21 2.26-4.056 2.847-4.02.828zM66.203 170.2c-.909-2.368-.047-5.142 1.598-5.142.975 0 1.486 1.003 1.486 2.917 0 3.16-2.134 4.7-3.084 2.225z" fill="#f53643"/><path d="M312.678 241.065c-4.872-2.238-7.297-4.843-8.932-9.6-.843-2.453-2.33-4.159-4.635-5.316-8.119-4.076-10.275-14.105-4.36-20.28l2.801-2.923-2.8-2.924c-5.916-6.175-3.76-16.203 4.36-20.28 2.304-1.157 3.79-2.863 4.634-5.316 1.635-4.757 4.06-7.362 8.932-9.6 9.107-4.181 19.204-.322 23.123 8.837 1.984 4.635 1.984 53.93 0 58.565-3.919 9.16-14.016 13.019-23.123 8.837zm15.364-3.83c4.486-3.287 6.133-7.861 6.135-17.04.002-8.828-.268-9.196-4.96-6.77-3.836 1.984-6.847 5.981-7.624 10.122-.388 2.07-1.223 3.399-2.137 3.399-1.954 0-.924-6.175 1.757-10.539 1.926-3.135 8.508-7.461 11.351-7.461 1.306 0 1.614-1.146 1.614-6 0-4.855-.308-6-1.614-6-2.843 0-9.425-4.327-11.351-7.462-2.681-4.364-3.71-10.538-1.757-10.538.914 0 1.749 1.327 2.137 3.398.777 4.14 3.788 8.138 7.624 10.122 4.692 2.426 4.961 2.058 4.96-6.77-.002-12.605-3.973-18.475-13.135-19.421-7.522-.777-13.616 4.354-15.347 12.92-.422 2.092-1.136 2.75-2.98 2.75-1.334 0-3.688 1.087-5.231 2.414-2.298 1.977-2.806 3.224-2.806 6.895 0 5.222 2.244 8.309 6.919 9.52 3.96 1.026 3.96 3.317 0 4.343-4.675 1.211-6.919 4.298-6.919 9.52 0 3.67.508 4.919 2.806 6.895 1.543 1.328 3.897 2.414 5.231 2.414 1.844 0 2.558.658 2.98 2.75.977 4.834 4.11 9.578 7.596 11.502 4.155 2.293 10.91 1.851 14.751-.964zm-24.864-22.664c0-.985.828-1.625 2.1-1.625 3.36 0 8.9-6.225 8.9-10 0-3.776-5.54-10-8.9-10-1.272 0-2.1-.641-2.1-1.625 0-1.295.65-1.495 3.198-.986 4.673.935 7.779 3.31 9.4 7.188 1.39 3.33 1.585 3.423 7.166 3.438 3.155.008 6.411.458 7.236 1 2.497 1.639-.702 2.952-7.236 2.97-5.581.014-5.776.108-7.167 3.437-1.62 3.878-4.726 6.253-9.399 7.188-2.547.51-3.198.31-3.198-.985zm47.5 26.957c-3.726-1.663-8.03-6.178-9.436-9.898-1.683-4.453-1.416-53.927.313-57.967 3.92-9.16 14.017-13.018 23.123-8.837 4.873 2.238 7.297 4.843 8.932 9.6.844 2.453 2.33 4.159 4.635 5.316 8.12 4.077 10.276 14.105 4.36 20.28l-2.8 2.924 2.8 2.924c5.916 6.174 3.76 16.203-4.36 20.28-2.304 1.156-3.791 2.862-4.635 5.315-1.635 4.757-4.06 7.362-8.932 9.6-4.705 2.16-9.818 2.33-14 .463zm13.403-3.39c3.465-1.86 6.6-6.591 7.58-11.442.422-2.092 1.136-2.75 2.98-2.75 1.334 0 3.688-1.086 5.231-2.414 2.298-1.977 2.806-3.224 2.806-6.895 0-5.222-2.243-8.309-6.918-9.52-3.96-1.026-3.96-3.317 0-4.343 4.675-1.211 6.918-4.298 6.918-9.52 0-3.67-.508-4.918-2.806-6.895-1.543-1.327-3.897-2.413-5.23-2.413-1.845 0-2.559-.66-2.981-2.75-1.73-8.567-7.824-13.698-15.347-12.921-9.162.946-13.132 6.816-13.134 19.42-.002 8.83.268 9.197 4.96 6.77 3.836-1.983 6.846-5.98 7.623-10.12.389-2.072 1.224-3.4 2.138-3.4 1.953 0 .924 6.175-1.757 10.539-1.927 3.135-8.508 7.462-11.352 7.462-1.306 0-1.614 1.145-1.614 6 0 4.854.308 6 1.614 6 2.844 0 9.425 4.326 11.352 7.461 2.68 4.364 3.71 10.539 1.757 10.539-.914 0-1.75-1.328-2.138-3.399-.777-4.14-3.787-8.138-7.623-10.121-4.984-2.578-5.183-2.249-4.808 7.949.39 10.627 1.848 13.724 7.917 16.819 4.392 2.24 8.586 2.22 12.832-.057zm3.097-23.944c-2.12-1.059-4.223-3.228-5.332-5.498-1.795-3.674-1.949-3.75-7.5-3.766-3.117-.008-6.343-.458-7.168-1-2.497-1.639.703-2.952 7.237-2.97 5.58-.014 5.775-.107 7.166-3.437 1.62-3.878 4.727-6.253 9.4-7.188 2.547-.51 3.197-.309 3.197.986 0 .984-.828 1.625-2.1 1.625-3.36 0-8.9 6.224-8.9 10 0 3.775 5.54 10 8.9 10 1.2 0 2.1.642 2.1 1.5 0 1.991-2.704 1.894-7-.252z" fill="#f53644"/><path d="M85.799 99.945c-1.33-1.047-3.492-4.197-4.806-7l-2.388-5.098H66.203l-.678 4.238c-.373 2.332-1.634 5.257-2.802 6.5-2.001 2.13-2.902 2.262-15.516 2.262-7.365 0-14.2-.433-15.188-.962-2.59-1.387-4.429-6.504-3.68-10.246.971-4.855 4.263-7.792 8.734-7.792h3.777l-1.93-4.25c-1.06-2.338-1.929-5.375-1.929-6.75 0-4.185 3.527-10.57 7.52-13.617l4.533-2.206 18.076-.677h18.827v-4.3c0-13.685 16.126-21.677 27.95-13.852 4.303 2.847 7.359 9.544 7.359 14.446 0 3.703-1.605 9.754-4.097 12.56-4.706 5.3-15.045 7.09-21.371 3.7l-3.63-1.945 4.555 13.74c5.133 15.487 5.128 18.025-.043 21.178-4.069 2.481-7.776 2.505-10.871.07zm10.148-3.098c1.1-1.1 2-2.563 2-3.25 0-.686-2.292-8.224-5.093-16.75-6.887-20.956-5.63-20-26.315-20-15.277 0-16.508.141-19.694 2.27-7.44 4.97-8.62 13.414-2.99 21.4l3.051 4.33h-6.423c-5.503 0-6.645.318-7.979 2.222-1.799 2.568-2.005 6.07-.521 8.843.944 1.764 2.21 1.935 14.377 1.935 15.3 0 15.607-.151 16.365-8.034l.477-4.966h17.484l2.564 5.913c3.529 8.136 8.341 10.443 12.697 6.087zm14.619-32.624c10.676-5.066 10.922-20.999.408-26.363-7.322-3.735-15.323-1.725-19.845 4.987-3.214 4.769-2.769 13.658.881 17.613 4.858 5.265 12.237 6.762 18.556 3.763z" fill="#f53744"/><path d="M294.945 85.503c-2.207-2.207-.214-5.9 7.816-14.483 4.68-5.002 8.78-10.177 9.112-11.499 1.345-5.36-4.981-7.532-6.927-2.377-1.04 2.757-1.52 3-5.913 3-4.457 0-4.78-.173-4.78-2.55 0-7.019 5.707-11.84 14.093-11.906 9.51-.075 13.906 3.963 13.906 12.771 0 4.836-1.302 7.028-8.875 14.935l-4.55 4.75h3.096c2.288 0 3.237-.54 3.636-2.065.447-1.71 1.198-2.011 4.367-1.75l3.826.315v11l-14.057.276c-7.731.152-14.368-.036-14.75-.417zm26.307-4.86c0-3.665-2.476-5.026-3.638-2-.707 1.844-12.362 2.2-12.362.378 0-.617 2.754-4.067 6.12-7.665 9.589-10.25 10.797-15.58 4.695-20.715-3.256-2.74-9.242-3.369-13.13-1.38-4.956 2.534-7.628 8.883-3.74 8.883 1.133 0 2.493-1.14 3.253-2.727 2.776-5.792 10.97-5.338 12.293.682.912 4.152-2.423 9.656-10.916 18.016-9.591 9.44-9.273 10.029 5.425 10.029h12zm31.693 4.86c-2.207-2.207-.214-5.9 7.816-14.483 4.68-5.002 8.78-10.177 9.112-11.499 1.345-5.36-4.981-7.532-6.927-2.377-1.04 2.757-1.52 3-5.913 3-4.457 0-4.78-.173-4.78-2.55 0-7.019 5.707-11.84 14.093-11.906 9.51-.075 13.906 3.963 13.906 12.771 0 4.836-1.302 7.028-8.875 14.935l-4.55 4.75h3.096c2.288 0 3.237-.54 3.636-2.065.447-1.71 1.198-2.011 4.367-1.75l3.826.315v11l-14.057.276c-7.731.152-14.368-.036-14.75-.417zm26.307-4.86c0-3.665-2.476-5.026-3.638-2-.707 1.844-12.362 2.2-12.362.378 0-.617 2.754-4.067 6.12-7.665 9.589-10.25 10.797-15.58 4.695-20.715-3.256-2.74-9.242-3.369-13.13-1.38-4.956 2.534-7.628 8.883-3.74 8.883 1.133 0 2.493-1.14 3.253-2.727 2.776-5.792 10.97-5.338 12.293.682.912 4.152-2.423 9.656-10.916 18.016-9.591 9.44-9.273 10.029 5.425 10.029h12zm-46.287.88c-.392-.392-.713-2.888-.713-5.546v-4.833h-9v-9h8.891l.305-4.75.304-4.75h10l.305 4.75.305 4.75h8.89v9h-8.895l-.302 5.25-.303 5.25-4.537.296c-2.495.163-4.858-.025-5.25-.417zm7.287-6.88v-5.5h4.5c4.134 0 4.5-.203 4.5-2.5 0-2.296-.366-2.5-4.5-2.5h-4.5v-5c0-4.666-.166-5-2.5-5-2.333 0-2.5.334-2.5 5v5h-4.5c-4.133 0-4.5.204-4.5 2.5 0 2.297.367 2.5 4.5 2.5h4.5v5.5c0 5.2.137 5.5 2.5 5.5 2.364 0 2.5-.3 2.5-5.5z" fill="#f53341"/><path d="M196.076 108.43c-3.216-.388-8.997-1.625-12.845-2.75-3.848-1.126-8.22-2.046-9.715-2.046-1.664 0-3.12-.75-3.753-1.935-1.296-2.421-1.343-27.031-.055-29.065 1.439-2.273 11.003-1.913 14.64.55 2.212 1.498 4.642 1.959 10.482 1.988 5.44.028 8.346.525 10.215 1.75 3.483 2.282 3.683 2.208 3.683-1.354 0-3.452 1.214-6.133 4.648-10.261 1.294-1.555 2.352-3.158 2.352-3.564 0-.405-2.683-.543-5.962-.306-5.085.368-6.617.048-10.413-2.177-6.217-3.643-9.092-8.643-9.092-15.81 0-4.706.516-6.422 2.983-9.915 6.834-9.674 20.47-10.996 28.186-2.733 2.722 2.916 5.298 8.912 5.298 12.335 0 1.412.67 3.59 1.488 4.838.818 1.25 1.929 6.296 2.467 11.215.539 4.919 1.684 11.419 2.545 14.444 3.109 10.925 1.012 30.749-3.5 33.085-2.37 1.227-27.19 2.488-33.652 1.71zm22.003-3.449l10.662-.652 1.493-5.03c2.057-6.924 1.87-16.97-.5-26.852-1.095-4.572-1.995-10.45-2-13.063-.003-2.613-.365-4.75-.803-4.75-1.02 0-7.257 6.621-9.775 10.375a1955.2 1955.2 0 0 0-3.673 5.5c-1.102 1.658-1.747 4.558-1.75 7.875-.003 2.887-.435 5.25-.96 5.25-.526 0-2.557-1.087-4.514-2.415-4.417-2.997-9.84-3.976-15.272-2.755-3.548.797-4.414.656-5.873-.956-2.036-2.25-8.587-4.395-10.811-3.542-1.321.507-1.573 2.668-1.561 13.386l.014 12.782 10.236 2.63c10.966 2.816 18.014 3.262 35.087 2.217zm-2.336-48.171c3.82-2 8-8.897 7.963-13.138-.038-4.31-3.65-10.868-7.17-13.014-4.438-2.706-12.183-2.703-16.626.006-4.462 2.72-7.571 9.71-6.676 15.007 1.744 10.323 13.22 16.001 22.51 11.139zm-13.426-8.253c-2.978-3.54-3.155-4.929-1.126-8.852 1.64-3.17 3.334-4.071 7.664-4.071 3.497 0 7.873 3.902 7.873 7.02 0 8.196-9.283 11.998-14.411 5.903zm9.938-1.954c1.454-1.606 1.638-2.596.884-4.74-1.015-2.889-3.143-3.764-6.87-2.829-2.932.736-3.917 4.377-1.984 7.327 1.853 2.829 5.528 2.94 7.97.242z" fill="#f53744"/></svg>