<svg xmlns="http://www.w3.org/2000/svg" width="50" height="50" viewBox="0 0 13.229167 13.229166"><path d="M5.367.538C4.555.423 1.462 2.841 1.435 3.703c-.013.431.281.274 2.365-1.264C5.197 1.407 5.734.825 5.498.596a.228.228 0 0 0-.13-.058zm6.793 2.028c-.624 0-2.501 1.428-5.43 4.14-2.721 2.52-4.536 3.35-5.411 2.471-.306-.306-.129-.592.78-1.258 2.318-1.698 4.049-3.547 3.832-4.095-.615-1.556-4.272.288-5.517 3.616l-.232.62v.006l-.004.014c0 .005-.002.01-.004.014a.758.758 0 0 1-.008.028c0 .005-.002.009-.003.013a.892.892 0 0 1-.004.014l-.003.012-.003.013-.003.011a.296.296 0 0 0-.004.014c0 .005-.002.01-.003.014l-.004.015-.003.013-.003.014-.004.013-.003.016-.004.012c0 .004-.002.007-.003.011 0 .004 0 .008-.002.012l-.002.014-.002.013c0 .005-.002.01-.003.014l-.002.013c0 .005 0 .01-.002.015L.104 8.4v.013l-.002.014v.027L.1 8.465l.001.013v.013l.001.014.001.017v.18l.001.014v.028l.001.013v.041l.001.013.001.013v.013l.001.013.001.014.001.014v.012l.002.014v.012l.002.013.001.011.002.01.002.012.002.012.001.01.002.01.002.01.002.009.004.01c0 .003 0 .006.002.009l.002.007.003.007.003.006a.119.119 0 0 1 .006.018l.003.008.299.39c1.634 1.32 3.792.749 6.486-1.718.956-.876 1.418-1.105 1.726-.857.23.186 1.19.427 2.134.535.943.109 1.715.317 1.715.462 0 .499-2.184 2.263-3.695 2.984-.955.456-2.053.703-2.982.671-1.427-.05-1.566.362-.208.618 1.873.354 4.544-.79 6.649-2.85 1.499-1.466 1.14-2.179-1.36-2.7-1.154-.242-2.099-.57-2.099-.73 0-.16.567-.572 1.26-.916 1.528-.757 2.582-1.828 2.274-2.312-.037-.059-.1-.088-.19-.088zM4.297 4.714c.031 0 .055.008.07.023.115.111-.31.634-.945 1.16-1.199.996-1.659 1.189-1.659.698 0-.39 2.072-1.893 2.534-1.881z" fill="#d01a91"/></svg>